<?xml version="1.0" ?><svg data-name="Layer 1" id="Layer_1" viewBox="0 0 512 512" xmlns="http://www.w3.org/2000/svg"><defs><style>.cls-1{fill:#45b29d;}.cls-2{fill:#304269;}.cls-3{fill:#eaae3a;}.cls-4{fill:#bd4932;}.cls-5{fill:#91bed4;}</style></defs><title/><rect class="cls-1" height="512" rx="256" ry="256" width="512"/><path class="cls-2" d="M195.56,345.9s-40.81,33.64-40.42,62.45c.24,18,25.27,30.79,50,26L234,428.83Z"/><path class="cls-2" d="M316.44,345.9s40.81,33.64,40.42,62.45c-.24,18-25.27,30.79-50,26L278,428.83Z"/><path class="cls-3" d="M210.49,402.45c13.23,45.42,77.6,45.42,90.82,0,22.19-76.2,42.46-163.83,33.81-207.06-8.91-44.57-30-75.23-48.19-94.38a42.86,42.86,0,0,0-62.07,0c-18.18,19.15-39.27,49.81-48.19,94.38C168,238.62,188.3,326.25,210.49,402.45Z"/><path class="cls-4" d="M255.9,75.54s-46.81,25.84-70.36,88.71h0s15.86,30.18,70.36,30.18c70.36,0,70.36-30.18,70.36-30.18C302.71,101.38,255.9,75.54,255.9,75.54Z"/><circle class="cls-2" cx="255.9" cy="273.48" r="50.86"/><circle class="cls-5" cx="255.9" cy="273.48" r="37.1"/></svg>