<svg width="320" height="315" viewBox="0 0 320 315" fill="none" xmlns="http://www.w3.org/2000/svg">
<path d="M160 314.645C248.366 314.645 320 244.21 320 157.323C320 70.4358 248.366 0 160 0C71.6344 0 0 70.4358 0 157.323C0 244.21 71.6344 314.645 160 314.645Z" fill="#7DC7BE"/>
<path d="M275.873 152.955L194.286 40.5813C184.381 27.9081 173.968 20.3541 162.667 20.5414C151.365 20.3541 144.508 23.4756 131.048 40.5813L49.4607 152.955C42.9845 162.881 39.048 170.747 39.048 179.238C39.048 190.537 46.2226 200.713 65.1432 207.706V252.093H162.667H260.191V207.706C279.111 200.713 286.286 190.537 286.286 179.238C286.286 170.747 282.159 161.632 275.873 152.955Z" fill="#996DFF"/>
<path d="M203.937 161.441C199.81 158.694 194.985 157.321 189.461 157.321H183.747V51.5026C183.747 45.6343 181.778 40.3277 178.096 36.0825C174.096 31.5252 168.572 29.1528 162.223 29.1528C158.286 29.1528 154.667 30.0268 151.556 31.8373C148.699 33.4605 146.223 35.5831 143.937 38.33L142.667 39.9532L139.747 43.7614C139.747 43.7614 64.5089 145.709 52.6359 164.188C49.7788 168.683 48.001 173.615 48.4454 178.797C48.8264 184.041 50.9216 188.661 54.6042 192.594C57.3978 195.59 62.4771 199.149 70.7946 199.149H139.747V221.311C139.747 227.18 141.842 232.549 145.842 236.669C150.032 241.102 155.429 243.474 161.461 243.474C167.81 243.474 173.397 241.101 177.588 236.731C181.588 232.486 183.747 227.18 183.747 221.311V199.149H189.461C195.366 199.149 200.762 197.151 205.016 193.343C209.588 189.285 212 184.041 212 178.235C212 168.683 207.619 163.814 203.937 161.441ZM139.747 111.56V157.321H108.89L139.747 111.56Z" fill="#EFEFEF"/>
<path d="M198.667 169.184C196.127 167.561 193.08 166.687 189.524 166.687H174.222V51.5044C174.222 47.8211 173.08 44.762 170.921 42.2648C168.699 39.7052 165.778 38.519 162.223 38.519C160 38.519 158.032 38.9561 156.254 40.0174C154.476 41.0162 152.889 42.3273 151.556 44.0129L60.3178 169.746C58.4765 172.243 57.6512 175.053 57.9051 178.112C58.1591 181.171 59.4289 183.918 61.5877 186.228C63.8099 188.6 66.8575 189.786 70.794 189.786H149.27V221.313C149.27 224.809 150.413 227.806 152.826 230.303C155.175 232.8 158.096 234.111 161.461 234.111C165.207 234.111 168.254 232.8 170.667 230.303C173.016 227.806 174.222 224.809 174.222 221.313V189.786H189.524C193.08 189.786 196.127 188.6 198.667 186.352C201.207 184.105 202.476 181.421 202.476 178.237C202.476 173.929 201.207 170.87 198.667 169.184ZM149.27 166.687H91.4924L149.27 83.7181V166.687Z" fill="#EFEFEF"/>
</svg>
